<svg xmlns="http://www.w3.org/2000/svg" width="25" height="25" viewBox="0 0 25 25">
  <g id="Home_button" transform="translate(-59 -979)">
    <path id="Vector_20" d="M83.328,989.874l0,0-10.2-10.2a2.3,2.3,0,0,0-3.255,0L59.679,989.867l-.01.01A2.3,2.3,0,0,0,61.2,993.8a.548.548,0,0,0,.071,0h.407v7.508a2.7,2.7,0,0,0,2.694,2.69h3.99a.733.733,0,0,0,.732-.73v-5.886a1.23,1.23,0,0,1,1.229-1.229h2.354a1.23,1.23,0,0,1,1.229,1.229v5.886a.733.733,0,0,0,.732.73h3.99a2.7,2.7,0,0,0,2.694-2.69V993.8H81.7a2.3,2.3,0,0,0,1.629-3.928Z" fill="#126881"/>
  </g>
</svg>
