<svg xmlns="http://www.w3.org/2000/svg" width="22.917" height="24.97" viewBox="0 0 22.917 24.97">
  <g id="Notification_button" transform="translate(-175 -979)">
    <path id="Vector_21" d="M185.417,1003.97a3.907,3.907,0,0,0,3.827-3.12H181.59A3.909,3.909,0,0,0,185.417,1003.97Z" fill="#acbac3"/>
    <path id="Vector_22" d="M192.721,991.487h-.012a7.3,7.3,0,0,1-7.292-7.284,7.2,7.2,0,0,1,.7-3.086c-.229-.022-.461-.036-.7-.036a7.287,7.287,0,0,0-7.291,7.285v2.9a6.972,6.972,0,0,1-2.488,5.341,1.822,1.822,0,0,0-.573,1.869,1.911,1.911,0,0,0,1.873,1.336h16.953a1.909,1.909,0,0,0,1.9-1.444,1.823,1.823,0,0,0-.621-1.781A6.926,6.926,0,0,1,192.721,991.487Z" fill="#acbac3"/>
    <path id="Vector_23" d="M197.917,984.2a5.208,5.208,0,1,1-5.208-5.2A5.2,5.2,0,0,1,197.917,984.2Z" fill="#e4126b"/>
  </g>
</svg>
