<svg xmlns="http://www.w3.org/2000/svg" width="19.195" height="18.505" viewBox="0 0 19.195 18.505">
  <g id="Shopping_Cart_Icon_2" data-name="Shopping Cart_Icon 2" transform="translate(-324.64 -52.502)">
    <path id="Vector_3" d="M338.747,68.771a1.736,1.736,0,0,1,1.739-1.735,1.763,1.763,0,0,1,1.737,1.741,1.738,1.738,0,0,1-3.476-.006Z" fill="none" stroke="#fff" stroke-width="1"/>
    <path id="Vector_4" d="M334.5,68.679h0v.008a1.731,1.731,0,0,1-1.646,1.795h-.029a1.706,1.706,0,0,1-1.7-1.647,1.75,1.75,0,0,1,1.667-1.8A1.725,1.725,0,0,1,334.5,68.679Z" fill="none" stroke="#fff" stroke-width="1"/>
    <path id="Vector_126" data-name="Vector 126" d="M342.332,55.6h-12.77a.5.5,0,0,0-.5.558l.868,7.377a1,1,0,0,0,.993.883h10.2a1,1,0,0,0,.985-.826l1.2-6.818A1,1,0,0,0,342.332,55.6Z" fill="none" stroke="#fff" stroke-width="1"/>
    <path id="Vector_127" data-name="Vector 127" d="M329.29,58.189l-.428-4.287a1,1,0,0,0-.995-.9H325.14" fill="none" stroke="#fff" stroke-linecap="round" stroke-width="1"/>
  </g>
</svg>
