<svg xmlns="http://www.w3.org/2000/svg" width="35.019" height="35.019" viewBox="0 0 35.019 35.019">
  <g id="Shop_cart_icon_1" data-name="Shop cart_icon 1" transform="translate(-310 -43.999)">
    <circle id="Ellipse_83" data-name="Ellipse 83" cx="17.5" cy="17.5" r="17.5" transform="matrix(1, 0.001, -0.001, 1, 310.019, 43.999)" fill="#7bcfe9"/>
    <g id="Shopping_Cart" data-name="Shopping Cart">
      <path id="Vector_3" d="M330.747,68.771a1.736,1.736,0,0,1,1.739-1.735,1.763,1.763,0,0,1,1.737,1.741,1.738,1.738,0,0,1-3.476-.006Z" fill="none" stroke="#fff" stroke-width="1"/>
      <path id="Vector_4" d="M326.5,68.679h0v.008a1.732,1.732,0,0,1-1.646,1.795h-.029a1.705,1.705,0,0,1-1.7-1.647,1.75,1.75,0,0,1,1.667-1.8A1.725,1.725,0,0,1,326.5,68.679Z" fill="none" stroke="#fff" stroke-width="1"/>
      <path id="Vector_126" data-name="Vector 126" d="M335.192,55.6h-12.77a.5.5,0,0,0-.5.558l.868,7.377a1,1,0,0,0,.993.883h10.2a1,1,0,0,0,.985-.826l1.2-6.818A1,1,0,0,0,335.192,55.6Z" fill="none" stroke="#fff" stroke-width="1"/>
      <path id="Vector_127" data-name="Vector 127" d="M322.15,58.189l-.429-4.287a1,1,0,0,0-.995-.9H318" fill="none" stroke="#fff" stroke-linecap="round" stroke-width="1"/>
    </g>
  </g>
</svg>
