<svg xmlns="http://www.w3.org/2000/svg" width="51" height="24" viewBox="0 0 51 24">
  <g id="Shop_Cart_Icon_2" data-name="Shop Cart_Icon 2" transform="translate(-274 -745)">
    <rect id="square" width="51" height="24" rx="12" transform="translate(274 745)" fill="#7bcfe9"/>
    <g id="Shopping_Cart_2" data-name="Shopping Cart_2">
      <path id="Vector_10" d="M302.707,763.143a1.363,1.363,0,0,1,1.366-1.363,1.386,1.386,0,0,1,1.364,1.369,1.365,1.365,0,0,1-2.73-.006Z" fill="none" stroke="#fff" stroke-width="1"/>
      <path id="Vector_11" d="M299,763.069h0v.008a1.359,1.359,0,0,1-1.291,1.408h-.022a1.337,1.337,0,0,1-1.329-1.292,1.375,1.375,0,0,1,1.308-1.416A1.354,1.354,0,0,1,299,763.069Z" fill="none" stroke="#fff" stroke-width="1"/>
      <path id="Vector_126_2" data-name="Vector 126_2" d="M306.129,752.163h-10.35a.5.5,0,0,0-.5.559l.695,5.907a1,1,0,0,0,.993.883h8.215a1,1,0,0,0,.984-.826l.944-5.349A1,1,0,0,0,306.129,752.163Z" fill="none" stroke="#fff" stroke-width="1"/>
      <path id="Vector_127_2" data-name="Vector 127_2" d="M295.458,754.325l-.342-3.423a1,1,0,0,0-.995-.9H292" fill="none" stroke="#fff" stroke-linecap="round" stroke-width="1"/>
    </g>
  </g>
</svg>
